<svg version="1.1" id="Layer_1" xmlns="http://www.w3.org/2000/svg" xmlns:xlink="http://www.w3.org/1999/xlink" x="0px" y="0px"
	 width="100%" viewBox="0 0 200 200" enable-background="new 0 0 200 200" xml:space="preserve">
<path fill="#FDFEFE" opacity="1.000000" stroke="none" 
	d="
M119.000000,201.000000 
	C79.357826,201.000000 40.215649,201.000000 1.036737,201.000000 
	C1.036737,134.399536 1.036737,67.799034 1.036737,1.099268 
	C67.558670,1.099268 134.117538,1.099268 200.838196,1.099268 
	C200.838196,67.666351 200.838196,134.333145 200.838196,201.000000 
	C173.799316,201.000000 146.649658,201.000000 119.000000,201.000000 
M147.951767,17.264534 
	C130.790924,14.692060 116.166580,19.426117 106.724640,34.308350 
	C96.483032,50.451023 87.423706,67.352150 78.070679,84.046837 
	C73.104904,92.910492 72.881104,102.508842 75.255287,112.167923 
	C75.595795,113.553268 77.362091,115.507133 78.585899,115.596825 
	C83.800102,115.978966 89.058411,115.759308 95.141060,115.759308 
	C90.448647,107.214737 88.972855,99.240303 93.281158,91.476273 
	C102.161591,75.472740 111.298172,59.604618 120.661972,43.878826 
	C125.457710,35.824757 135.181808,31.979731 144.556580,34.117683 
	C153.789566,36.223301 159.595184,42.142208 162.058304,51.360104 
	C164.033432,58.751709 161.414932,65.034393 157.832504,71.248924 
	C156.771225,73.089951 155.424530,75.892265 156.102539,77.405540 
	C158.424240,82.587395 161.587433,87.392220 164.555511,92.559875 
	C189.201553,59.808262 182.192032,27.625120 147.951767,17.264534 
M79.801163,63.023067 
	C78.718544,62.462429 77.634933,61.419044 76.553482,61.421280 
	C70.558838,61.433666 64.549927,61.492382 58.573147,61.917896 
	C38.397923,63.354259 22.443756,80.791458 22.241993,101.434196 
	C22.047062,121.378120 37.545197,139.882095 57.308441,140.909912 
	C77.066483,141.937424 96.944763,141.354385 116.740570,140.645752 
	C126.031807,140.313141 134.430298,136.111160 141.414734,129.752762 
	C142.539017,128.729248 143.846893,126.358208 143.394104,125.412109 
	C141.083054,120.583267 138.221878,116.017723 135.281021,110.885078 
	C128.411041,121.305817 118.948059,124.238029 107.735596,124.104401 
	C93.411430,123.933685 79.079994,124.427834 64.750977,124.556717 
	C62.266880,124.579063 59.733719,124.449104 57.301178,123.982803 
	C46.777821,121.965584 38.631897,111.462700 39.154381,100.753082 
	C39.655361,90.484360 47.787090,78.671188 59.239460,79.189339 
	C69.411865,79.649582 74.461205,75.233940 77.730179,66.759583 
	C78.144814,65.684685 78.863159,64.726944 79.801163,63.023067 
M145.130997,110.384064 
	C146.115326,112.121735 147.105042,113.856400 148.083038,115.597626 
	C151.749817,122.126045 155.646469,128.538544 159.019653,135.215439 
	C163.514313,144.112122 162.342606,152.740280 156.071014,160.341125 
	C150.156952,167.508652 142.269363,169.804199 133.221252,167.866058 
	C125.429581,166.197067 120.578438,160.999741 116.986786,154.216934 
	C116.127914,152.594971 114.602654,150.277206 113.226295,150.162003 
	C107.675117,149.697357 102.062263,149.969421 95.345673,149.969421 
	C98.517136,155.679382 101.010437,160.500931 103.806534,165.139954 
	C112.069069,178.848434 124.108147,185.515503 140.288620,185.200119 
	C168.162750,184.656784 187.825607,154.372238 173.799835,126.917351 
	C166.688858,112.997887 158.417770,99.675873 150.933167,85.940987 
	C144.768997,74.629219 136.313538,66.210617 123.605568,62.800179 
	C122.318390,62.454739 119.969292,62.735027 119.405685,63.583561 
	C116.490868,67.971931 113.996796,72.639778 111.067406,77.709641 
	C123.430710,78.189507 131.114319,84.409447 136.246643,94.492432 
	C138.886581,99.678902 141.940613,104.654602 145.130997,110.384064 
z"/>
<path fill="#F58750" opacity="1.000000" stroke="none" 
	d="
M148.346619,17.395584 
	C182.192032,27.625120 189.201553,59.808262 164.555511,92.559875 
	C161.587433,87.392220 158.424240,82.587395 156.102539,77.405540 
	C155.424530,75.892265 156.771225,73.089951 157.832504,71.248924 
	C161.414932,65.034393 164.033432,58.751709 162.058304,51.360104 
	C159.595184,42.142208 153.789566,36.223301 144.556580,34.117683 
	C135.181808,31.979731 125.457710,35.824757 120.661972,43.878826 
	C111.298172,59.604618 102.161591,75.472740 93.281158,91.476273 
	C88.972855,99.240303 90.448647,107.214737 95.141060,115.759308 
	C89.058411,115.759308 83.800102,115.978966 78.585899,115.596825 
	C77.362091,115.507133 75.595795,113.553268 75.255287,112.167923 
	C72.881104,102.508842 73.104904,92.910492 78.070679,84.046837 
	C87.423706,67.352150 96.483032,50.451023 106.724640,34.308350 
	C116.166580,19.426117 130.790924,14.692060 148.346619,17.395584 
z"/>
<path fill="#119396" opacity="1.000000" stroke="none" 
	d="
M79.620987,63.368999 
	C78.863159,64.726944 78.144814,65.684685 77.730179,66.759583 
	C74.461205,75.233940 69.411865,79.649582 59.239460,79.189339 
	C47.787090,78.671188 39.655361,90.484360 39.154381,100.753082 
	C38.631897,111.462700 46.777821,121.965584 57.301178,123.982803 
	C59.733719,124.449104 62.266880,124.579063 64.750977,124.556717 
	C79.079994,124.427834 93.411430,123.933685 107.735596,124.104401 
	C118.948059,124.238029 128.411041,121.305817 135.281021,110.885078 
	C138.221878,116.017723 141.083054,120.583267 143.394104,125.412109 
	C143.846893,126.358208 142.539017,128.729248 141.414734,129.752762 
	C134.430298,136.111160 126.031807,140.313141 116.740570,140.645752 
	C96.944763,141.354385 77.066483,141.937424 57.308441,140.909912 
	C37.545197,139.882095 22.047062,121.378120 22.241993,101.434196 
	C22.443756,80.791458 38.397923,63.354259 58.573147,61.917896 
	C64.549927,61.492382 70.558838,61.433666 76.553482,61.421280 
	C77.634933,61.419044 78.718544,62.462429 79.620987,63.368999 
z"/>
<path fill="#98D2BE" opacity="1.000000" stroke="none" 
	d="
M144.969269,110.054810 
	C141.940613,104.654602 138.886581,99.678902 136.246643,94.492432 
	C131.114319,84.409447 123.430710,78.189507 111.067406,77.709641 
	C113.996796,72.639778 116.490868,67.971931 119.405685,63.583561 
	C119.969292,62.735027 122.318390,62.454739 123.605568,62.800179 
	C136.313538,66.210617 144.768997,74.629219 150.933167,85.940987 
	C158.417770,99.675873 166.688858,112.997887 173.799835,126.917351 
	C187.825607,154.372238 168.162750,184.656784 140.288620,185.200119 
	C124.108147,185.515503 112.069069,178.848434 103.806534,165.139954 
	C101.010437,160.500931 98.517136,155.679382 95.345673,149.969421 
	C102.062263,149.969421 107.675117,149.697357 113.226295,150.162003 
	C114.602654,150.277206 116.127914,152.594971 116.986786,154.216934 
	C120.578438,160.999741 125.429581,166.197067 133.221252,167.866058 
	C142.269363,169.804199 150.156952,167.508652 156.071014,160.341125 
	C162.342606,152.740280 163.514313,144.112122 159.019653,135.215439 
	C155.646469,128.538544 151.749817,122.126045 148.083038,115.597626 
	C147.105042,113.856400 146.115326,112.121735 144.969269,110.054810 
z"/>
</svg>